<svg xmlns="http://www.w3.org/2000/svg" viewBox="160.4 626.4 458.3 186.7">
  <path fill="#F79838" d="M300 763.1h-18.7l16.2-32.8h.2l2.3 32.8zm.8 14.9l1.1 13h20.6l-6.9-75.7h-30.7L246.2 791h21l6.5-13h27.1zm50.5-20.2h3.1l14.8-19.9h18.9l-20.4 25.4 12.6 27.5h-20.2l-8.2-21.4H349l-4.6 21.4h-17.5l16-75.4h17.4m50.1 53.6c5.7 0 9.5.4 8.4 4.8-1.3 5.7-3.6 6.5-10.9 6.5-2.7 0-7.6 0-6.3-5.7 1-4.8 4.6-5.6 8.8-5.6zm4.8 21.8h17.2l6.9-33c4-18.3-3.2-20.4-20.8-20.4-12.4 0-24.4-.2-28 16.4h17.2c1.1-4.8 4-5.7 8.2-5.7 7.6 0 7.4 3.2 6.1 8l-1.7 8.4h-.8c-.6-6.1-8.2-5.9-13.2-5.9-12.6 0-20 4-22.7 16.6-2.9 13.5 3.6 16.4 15.6 16.4 6.1 0 14.1-1.3 17-8.4h.6l-1.6 7.6zm52.4-52.9l-1.5 7.6h.6c3.4-6.3 10.3-8 16.2-8 7.6 0 14.9 1.3 13.9 10.3h.8c2.5-7.6 10.3-10.3 17-10.3 12.2 0 17.4 5 14.7 17.2l-7.8 36.2h-17.2l6.5-30.7c.8-5.7 1.7-9.7-4.8-9.7s-9 4.4-10.1 10.1l-6.3 30.1h-17.2l6.7-32c.8-4.8 1.3-8.2-4.8-8.2-7.1 0-9.3 3.8-10.5 10.1l-6.3 30.1h-17.2l11.4-53h16v.2zm88.9 31.1c5.7 0 9.5.4 8.4 4.8-1.1 5.7-3.6 6.5-10.9 6.5-2.5 0-7.6 0-6.3-5.7 1-4.8 4.4-5.6 8.8-5.6zm4.6 21.8h17.2l6.9-33c4-18.3-3.2-20.4-20.8-20.4-12.4 0-24.4-.2-28 16.4h17.2c1.1-4.8 4-5.7 8.2-5.7 7.6 0 7.4 3.2 6.1 8l-1.7 8.4h-.8c-.6-6.1-8.2-5.9-13.2-5.9-12.6 0-20 4-22.7 16.6-2.9 13.5 3.6 16.4 15.6 16.4 6.1 0 14.1-1.3 17-8.4h.6l-1.6 7.6zm42.5 0h-17.2l11.1-53h17.2l-11.1 53zm15.1-67.4c0 5.3-4.4 9.7-9.7 9.7s-9.7-4.4-9.7-9.7c0-5.5 4.4-9.7 9.7-9.7s9.7 4.2 9.7 9.7z"/>
  <g fill="#0098CC">
    <path d="M255.2 809.1c-38.5-11.8-66.4-47.3-66.4-89.1 0-42.5 28.6-78.2 67.7-89.8 4-1.1 2.9-3.8-1.9-3.8-51.9 0-94.2 41.8-94.2 93.3s42 93.3 94.2 93.3c4.8.3 5-2.4.6-3.9z"/>
    <path d="M206.7 741.6c-.2-2.5-.4-5-.4-7.6 0-41 33.2-74.2 74.2-74.2 38.7 0 50.5 17.2 51.7 16.2 1.5-1.3-14.1-35.5-59.5-35.5-41 0-74.2 33.2-74.2 74.2 0 9.5 1.9 18.5 5 26.9 1.3 3.6 3.4 3.6 3.2 0z"/>
    <path d="M237.6 688.2c19.1-8.4 43.5-8.6 67.3-.4 16 5.7 25.2 13.5 26.1 13.2 1.3-.6-9.3-17.2-28.4-24.4-23.1-8.6-47.9-4.2-66 10.1-2 1.5-1.4 2.6 1 1.5z"/>
  </g>
</svg>
